<svg xmlns="http://www.w3.org/2000/svg" viewBox="0 0 400 300"><rect width="400" height="300" fill="#f3e3cf"/><circle cx="320" cy="60" r="34" fill="#e9b872"/><path d="M150 70c-10 15 10 25 0 40M200 60c-10 15 10 25 0 40M250 70c-10 15 10 25 0 40" stroke="#b08968" stroke-width="6" fill="none" stroke-linecap="round"/><ellipse cx="200" cy="250" rx="140" ry="18" fill="#d6b48f"/><path d="M110 130h180l-18 110a20 20 0 0 1-20 16H148a20 20 0 0 1-20-16z" fill="#7f4f24"/><ellipse cx="200" cy="130" rx="90" ry="14" fill="#4a2c17"/><path d="M288 150c40 0 40 60 0 60" stroke="#7f4f24" stroke-width="14" fill="none"/></svg>
